<svg xmlns="http://www.w3.org/2000/svg" viewBox="0 0 1024 1024" width="1024" height="1024">
  <defs>
    <linearGradient id="bg3" x1="0%" y1="0%" x2="100%" y2="100%"><stop offset="0%" stop-color="#0F172A"/><stop offset="100%" stop-color="#020617"/></linearGradient>
    <linearGradient id="ac3" x1="0%" y1="0%" x2="0%" y2="100%"><stop offset="0%" stop-color="#67E8F9"/><stop offset="100%" stop-color="#0E7490"/></linearGradient>
    <filter id="g3"><feGaussianBlur stdDeviation="6" result="b"/><feMerge><feMergeNode in="b"/><feMergeNode in="SourceGraphic"/></feMerge></filter>
  </defs>
  <rect width="1024" height="1024" rx="240" fill="url(#bg3)"/>
  <ellipse cx="512" cy="540" rx="380" ry="160" fill="#22D3EE" opacity="0.18"/>
  <!-- D-pad top-LEFT (smaller / more subtle) -->
  <g transform="translate(190, 190)" filter="url(#g3)" opacity="0.7">
    <rect x="-36" y="-12" width="72" height="24" rx="12" fill="url(#ac3)"/>
    <rect x="-12" y="-36" width="24" height="72" rx="12" fill="url(#ac3)"/>
  </g>
  <!-- ABXY bottom-RIGHT (subtle) -->
  <g transform="translate(836, 836)" filter="url(#g3)" opacity="0.75">
    <circle cx="0" cy="-32" r="13" fill="url(#ac3)"/>
    <circle cx="-32" cy="0" r="13" fill="url(#ac3)"/>
    <circle cx="32" cy="0" r="13" fill="url(#ac3)"/>
    <circle cx="0" cy="32" r="13" fill="url(#ac3)"/>
  </g>
  <!-- EQ — HUGE main hero -->
  <g transform="translate(512, 540)" filter="url(#g3)">
    <rect x="-340" y="-60" width="50" height="120" rx="25" fill="url(#ac3)" opacity="0.5"/>
    <rect x="-250" y="-150" width="50" height="300" rx="25" fill="url(#ac3)" opacity="0.72"/>
    <rect x="-160" y="-240" width="60" height="480" rx="30" fill="url(#ac3)" opacity="0.9"/>
    <rect x="-60" y="-300" width="60" height="600" rx="30" fill="url(#ac3)"/>
    <rect x="40" y="-220" width="60" height="440" rx="30" fill="url(#ac3)" opacity="0.92"/>
    <rect x="140" y="-130" width="50" height="260" rx="25" fill="url(#ac3)" opacity="0.72"/>
    <rect x="230" y="-70" width="50" height="140" rx="25" fill="url(#ac3)" opacity="0.5"/>
  </g>
</svg>
