<svg xmlns="http://www.w3.org/2000/svg" viewBox="0 0 1024 1024" width="1024" height="1024">
  <defs>
    <linearGradient id="bg6" x1="0%" y1="0%" x2="100%" y2="100%"><stop offset="0%" stop-color="#0F172A"/><stop offset="100%" stop-color="#020617"/></linearGradient>
    <linearGradient id="ac6" x1="0%" y1="0%" x2="0%" y2="100%"><stop offset="0%" stop-color="#67E8F9"/><stop offset="100%" stop-color="#0E7490"/></linearGradient>
    <filter id="g6"><feGaussianBlur stdDeviation="10" result="b"/><feMerge><feMergeNode in="b"/><feMergeNode in="SourceGraphic"/></feMerge></filter>
  </defs>
  <rect width="1024" height="1024" rx="240" fill="url(#bg6)"/>
  <ellipse cx="512" cy="540" rx="380" ry="160" fill="#22D3EE" opacity="0.2"/>
  <!-- D-pad LARGE top-LEFT -->
  <g transform="translate(240, 240)" filter="url(#g6)">
    <rect x="-72" y="-22" width="144" height="44" rx="22" fill="url(#ac6)"/>
    <rect x="-22" y="-72" width="44" height="144" rx="22" fill="url(#ac6)"/>
    <circle cx="0" cy="0" r="12" fill="#020617"/>
  </g>
  <!-- ABXY LARGE bottom-RIGHT -->
  <g transform="translate(800, 800)" filter="url(#g6)">
    <circle cx="0" cy="-58" r="24" fill="url(#ac6)"/>
    <circle cx="-58" cy="0" r="24" fill="url(#ac6)" opacity="0.88"/>
    <circle cx="58" cy="0" r="24" fill="url(#ac6)" opacity="0.88"/>
    <circle cx="0" cy="58" r="24" fill="url(#ac6)" opacity="0.72"/>
  </g>
  <!-- EQ compact -->
  <g transform="translate(512, 520)" filter="url(#g6)">
    <rect x="-260" y="-40" width="40" height="80" rx="20" fill="url(#ac6)" opacity="0.55"/>
    <rect x="-190" y="-100" width="40" height="200" rx="20" fill="url(#ac6)" opacity="0.72"/>
    <rect x="-120" y="-170" width="48" height="340" rx="24" fill="url(#ac6)" opacity="0.9"/>
    <rect x="-44" y="-220" width="48" height="440" rx="24" fill="url(#ac6)"/>
    <rect x="32" y="-150" width="48" height="300" rx="24" fill="url(#ac6)" opacity="0.92"/>
    <rect x="108" y="-90" width="40" height="180" rx="20" fill="url(#ac6)" opacity="0.7"/>
    <rect x="178" y="-50" width="40" height="100" rx="20" fill="url(#ac6)" opacity="0.5"/>
  </g>
</svg>
