<svg xmlns="http://www.w3.org/2000/svg" viewBox="0 0 1024 1024" width="1024" height="1024">
  <defs>
    <linearGradient id="bg5" x1="0%" y1="0%" x2="100%" y2="100%">
      <stop offset="0%" stop-color="#FFFFFF"/>
      <stop offset="100%" stop-color="#F1F5F9"/>
    </linearGradient>
    <linearGradient id="ac5" x1="0%" y1="0%" x2="100%" y2="100%">
      <stop offset="0%" stop-color="#22D3EE"/>
      <stop offset="100%" stop-color="#0E7490"/>
    </linearGradient>
    <filter id="g5"><feGaussianBlur stdDeviation="14" result="b"/><feMerge><feMergeNode in="b"/><feMergeNode in="SourceGraphic"/></feMerge></filter>
  </defs>
  <rect width="1024" height="1024" rx="240" fill="url(#bg5)"/>
  <!-- Concentric arcs (sound radiating right) -->
  <g transform="translate(420, 512)" filter="url(#g5)">
    <!-- Mic -->
    <rect x="-80" y="-90" width="120" height="180" rx="60" fill="url(#ac5)"/>
    <rect x="-30" y="100" width="20" height="60" rx="6" fill="#0E7490" opacity="0.7"/>
    <!-- Concentric arcs -->
    <path d="M 80 -100 a 130 130 0 0 1 0 200" stroke="url(#ac5)" stroke-width="22" fill="none" stroke-linecap="round" opacity="0.85"/>
    <path d="M 160 -160 a 200 200 0 0 1 0 320" stroke="url(#ac5)" stroke-width="22" fill="none" stroke-linecap="round" opacity="0.6"/>
    <path d="M 240 -220 a 270 270 0 0 1 0 440" stroke="url(#ac5)" stroke-width="22" fill="none" stroke-linecap="round" opacity="0.4"/>
    <path d="M 320 -280 a 340 340 0 0 1 0 560" stroke="url(#ac5)" stroke-width="22" fill="none" stroke-linecap="round" opacity="0.22"/>
  </g>
</svg>
